<svg width="64" height="64" viewBox="0 0 64 64" fill="none" xmlns="http://www.w3.org/2000/svg">
<mask id="path-1-outside-1_2_83" maskUnits="userSpaceOnUse" x="1.28879" y="15" width="39" height="38" fill="black">
<rect fill="white" x="1.28879" y="15" width="39" height="38"/>
<path d="M7.54961 44.077C7.54961 47.448 10.2823 50.1807 13.6533 50.1807C17.0243 50.1807 19.757 47.448 19.757 44.077C19.757 40.706 17.0243 37.9733 13.6533 37.9733C10.2823 37.9733 7.54961 40.706 7.54961 44.077Z"/>
</mask>
<path d="M16.0948 19.6622L16.9892 20.1094V20.1094L16.0948 19.6622ZM12.4326 26.9867L13.327 27.4339C13.3155 27.4568 13.3032 27.4792 13.29 27.5011L12.4326 26.9867ZM5.10813 44.077V43.077V44.077ZM6.49533 43.077C7.04762 43.077 7.49533 43.5247 7.49533 44.077C7.49533 44.6293 7.04762 45.077 6.49533 45.077V43.077ZM22.1985 45.077C21.6462 45.077 21.1985 44.6293 21.1985 44.077C21.1985 43.5247 21.6462 43.077 22.1985 43.077V45.077ZM39.2888 43.077C39.8411 43.077 40.2888 43.5247 40.2888 44.077C40.2888 44.6293 39.8411 45.077 39.2888 45.077V43.077ZM19.757 17C19.2521 17 18.8364 17.2198 18.3877 17.7469C17.9086 18.3097 17.4882 19.1115 16.9892 20.1094L15.2003 19.215C15.6779 18.2598 16.2008 17.2305 16.8648 16.4505C17.5592 15.6347 18.4863 15 19.757 15V17ZM16.9892 20.1094L13.327 27.4339L11.5381 26.5394L15.2003 19.215L16.9892 20.1094ZM12.4326 26.9867C13.29 27.5011 13.2896 27.5019 13.2892 27.5026C13.289 27.5029 13.2885 27.5036 13.2882 27.5042C13.2876 27.5052 13.287 27.5062 13.2863 27.5073C13.285 27.5094 13.2837 27.5116 13.2823 27.5139C13.2795 27.5184 13.2764 27.5233 13.2731 27.5284C13.2666 27.5387 13.259 27.5502 13.2505 27.5627C13.2335 27.5877 13.2125 27.617 13.1871 27.6499C13.1363 27.7158 13.0682 27.7958 12.9794 27.8845C12.8013 28.0626 12.5441 28.2721 12.1858 28.4712C11.4649 28.8716 10.3769 29.2074 8.77034 29.2074V27.2074C10.0936 27.2074 10.8366 26.9328 11.2145 26.7229C11.4055 26.6168 11.5145 26.521 11.5652 26.4703C11.591 26.4446 11.6029 26.4292 11.6036 26.4283C11.6039 26.4278 11.6015 26.4309 11.5967 26.4381C11.5943 26.4416 11.5912 26.4462 11.5876 26.4519C11.5858 26.4547 11.5838 26.4578 11.5817 26.4612C11.5807 26.4629 11.5796 26.4646 11.5785 26.4665C11.5779 26.4674 11.5774 26.4683 11.5768 26.4693C11.5765 26.4697 11.5761 26.4705 11.5759 26.4707C11.5755 26.4714 11.5751 26.4722 12.4326 26.9867ZM8.77034 29.2074C7.87432 29.2074 6.5337 29.429 5.45466 30.0505C4.42534 30.6434 3.66665 31.5665 3.66665 33.0903H1.66665C1.66665 30.7078 2.94252 29.1895 4.45641 28.3175C5.92057 27.4741 7.6318 27.2074 8.77034 27.2074V29.2074ZM3.66665 33.0903V41.6355H1.66665V33.0903H3.66665ZM3.66665 41.6355C3.66665 41.8728 3.81487 42.2434 4.15753 42.5861C4.50019 42.9288 4.87084 43.077 5.10813 43.077L5.10813 45.077C4.18017 45.077 3.33008 44.5871 2.74332 44.0003C2.15655 43.4136 1.66665 42.5635 1.66665 41.6355H3.66665ZM5.10813 43.077H6.49533V45.077H5.10813V43.077ZM22.1985 43.077H39.2888V45.077H22.1985V43.077ZM19.757 15H39.2888V17H19.757V15ZM9.54961 44.077C9.54961 46.3434 11.3869 48.1807 13.6533 48.1807V52.1807C9.17775 52.1807 5.54961 48.5525 5.54961 44.077H9.54961ZM13.6533 48.1807C15.9197 48.1807 17.757 46.3434 17.757 44.077H21.757C21.757 48.5525 18.1288 52.1807 13.6533 52.1807V48.1807ZM17.757 44.077C17.757 41.8106 15.9197 39.9733 13.6533 39.9733V35.9733C18.1288 35.9733 21.757 39.6014 21.757 44.077H17.757ZM13.6533 39.9733C11.3869 39.9733 9.54961 41.8106 9.54961 44.077H5.54961C5.54961 39.6014 9.17775 35.9733 13.6533 35.9733V39.9733Z" fill="black" mask="url(#path-1-outside-1_2_83)"/>
<mask id="path-3-outside-2_2_83" maskUnits="userSpaceOnUse" x="24.6387" y="15" width="39" height="38" fill="black">
<rect fill="white" x="24.6387" y="15" width="39" height="38"/>
<path d="M57.3779 44.077C57.3779 47.448 54.6452 50.1807 51.2742 50.1807C47.9032 50.1807 45.1705 47.448 45.1705 44.077C45.1705 40.706 47.9032 37.9733 51.2742 37.9733C54.6452 37.9733 57.3779 40.706 57.3779 44.077Z"/>
</mask>
<path d="M48.8327 19.6622L47.9383 20.1094V20.1094L48.8327 19.6622ZM52.4949 26.9867L51.6005 27.4339C51.612 27.4568 51.6243 27.4792 51.6374 27.5011L52.4949 26.9867ZM59.8194 44.077V43.077V44.077ZM58.4322 43.077C57.8799 43.077 57.4322 43.5247 57.4322 44.077C57.4322 44.6293 57.8799 45.077 58.4322 45.077V43.077ZM42.729 45.077C43.2813 45.077 43.729 44.6293 43.729 44.077C43.729 43.5247 43.2813 43.077 42.729 43.077V45.077ZM25.6387 43.077C25.0864 43.077 24.6387 43.5247 24.6387 44.077C24.6387 44.6293 25.0864 45.077 25.6387 45.077V43.077ZM45.1705 17C45.6754 17 46.0911 17.2198 46.5398 17.7469C47.0189 18.3097 47.4393 19.1115 47.9383 20.1094L49.7271 19.215C49.2495 18.2598 48.7267 17.2305 48.0627 16.4505C47.3683 15.6347 46.4412 15 45.1705 15V17ZM47.9383 20.1094L51.6005 27.4339L53.3894 26.5394L49.7271 19.215L47.9383 20.1094ZM52.4949 26.9867C51.6374 27.5011 51.6379 27.5019 51.6383 27.5026C51.6385 27.5029 51.6389 27.5036 51.6393 27.5042C51.6399 27.5052 51.6405 27.5062 51.6412 27.5073C51.6425 27.5094 51.6438 27.5116 51.6452 27.5139C51.648 27.5184 51.6511 27.5233 51.6544 27.5284C51.6609 27.5387 51.6684 27.5502 51.677 27.5627C51.694 27.5877 51.715 27.617 51.7403 27.6499C51.7911 27.7158 51.8593 27.7958 51.9481 27.8845C52.1262 28.0626 52.3834 28.2721 52.7417 28.4712C53.4626 28.8716 54.5506 29.2074 56.1571 29.2074V27.2074C54.8339 27.2074 54.0909 26.9328 53.713 26.7229C53.522 26.6168 53.413 26.521 53.3623 26.4703C53.3365 26.4446 53.3246 26.4292 53.3239 26.4283C53.3235 26.4278 53.3259 26.4309 53.3308 26.4381C53.3332 26.4416 53.3363 26.4462 53.3399 26.4519C53.3417 26.4547 53.3437 26.4578 53.3457 26.4612C53.3468 26.4629 53.3479 26.4646 53.349 26.4665C53.3495 26.4674 53.3501 26.4683 53.3507 26.4693C53.351 26.4697 53.3514 26.4705 53.3516 26.4707C53.352 26.4714 53.3524 26.4722 52.4949 26.9867ZM56.1571 29.2074C57.0532 29.2074 58.3938 29.429 59.4728 30.0505C60.5021 30.6434 61.2608 31.5665 61.2608 33.0903H63.2608C63.2608 30.7078 61.985 29.1895 60.4711 28.3175C59.0069 27.4741 57.2957 27.2074 56.1571 27.2074V29.2074ZM61.2608 33.0903V41.6355H63.2608V33.0903H61.2608ZM61.2608 41.6355C61.2608 41.8728 61.1126 42.2434 60.77 42.5861C60.4273 42.9288 60.0567 43.077 59.8194 43.077L59.8194 45.077C60.7473 45.077 61.5974 44.5871 62.1842 44.0003C62.7709 43.4136 63.2608 42.5635 63.2608 41.6355H61.2608ZM59.8194 43.077H58.4322V45.077H59.8194V43.077ZM42.729 43.077H25.6387V45.077H42.729V43.077ZM45.1705 15H25.6387V17H45.1705V15ZM55.3779 44.077C55.3779 46.3434 53.5406 48.1807 51.2742 48.1807V52.1807C55.7497 52.1807 59.3779 48.5525 59.3779 44.077H55.3779ZM51.2742 48.1807C49.0078 48.1807 47.1705 46.3434 47.1705 44.077H43.1705C43.1705 48.5525 46.7987 52.1807 51.2742 52.1807V48.1807ZM47.1705 44.077C47.1705 41.8106 49.0078 39.9733 51.2742 39.9733V35.9733C46.7987 35.9733 43.1705 39.6014 43.1705 44.077H47.1705ZM51.2742 39.9733C53.5406 39.9733 55.3779 41.8106 55.3779 44.077H59.3779C59.3779 39.6014 55.7497 35.9733 51.2742 35.9733V39.9733Z" fill="black" mask="url(#path-3-outside-2_2_83)"/>
<path d="M44.6392 20H34.1818C34.1265 20 34.0818 20.0448 34.0818 20.1V30.1098C34.0818 30.165 34.1265 30.2098 34.1818 30.2098H49.8443C49.9194 30.2098 49.9677 30.1302 49.9331 30.0637L44.728 20.0539C44.7108 20.0208 44.6766 20 44.6392 20Z" stroke="black" stroke-width="2"/>
<path d="M20.7987 20H31.2561C31.3114 20 31.3561 20.0448 31.3561 20.1V30.1098C31.3561 30.165 31.3114 30.2098 31.2561 30.2098H15.5936C15.5185 30.2098 15.4702 30.1302 15.5048 30.0637L20.7099 20.0539C20.7271 20.0208 20.7613 20 20.7987 20Z" stroke="black" stroke-width="2"/>
</svg>
