<svg width="64" height="64" viewBox="0 0 64 64" fill="none" xmlns="http://www.w3.org/2000/svg">
<path d="M10.8417 43.2835C10.478 43.6992 10.5201 44.3309 10.9357 44.6946C11.3514 45.0583 11.9831 45.0162 12.3468 44.6005L20.7601 34.9853C21.8595 35.742 23.8199 37.9297 24.6368 42.8311C24.7172 43.3132 25.1344 43.6667 25.6232 43.6667H37.1015C37.5848 43.6667 37.9989 43.321 38.0853 42.8455C38.4822 40.6627 39.7503 37.3336 42.2441 34.5683C43.1117 33.6062 44.1279 32.7114 45.3111 31.9553L51.5317 43.1523C51.7999 43.6351 52.4087 43.809 52.8915 43.5408C53.3742 43.2726 53.5482 42.6638 53.28 42.181L47.068 30.9995C48.9217 30.1545 51.11 29.6377 53.6812 29.6377C54.2335 29.6377 54.6812 29.19 54.6812 28.6377C54.6812 24.1411 51.9886 14.5257 41.1237 12.3528C40.7595 12.2799 40.385 12.4149 40.151 12.7033C39.917 12.9916 39.8621 13.3859 40.0084 13.7273C40.4532 14.7651 40.9922 16.2381 41.4076 17.7819L36.304 15.0056C35.8188 14.7417 35.2116 14.9211 34.9477 15.4062C34.6838 15.8914 34.8631 16.4986 35.3482 16.7625L41.9472 20.3522C42.0641 21.1883 42.1014 21.9533 42.038 22.5973C41.9972 23.0116 41.9185 23.3392 41.8156 23.5936C40.1829 23.0364 37.8857 22.6368 35.4705 22.9595C32.8072 23.3154 29.9966 24.5539 27.8291 27.3993C25.8508 26.5665 22.9787 25.5181 19.9766 24.7366C16.6087 23.8599 12.9115 23.2733 10.1228 23.831C10.1072 23.8341 10.0917 23.8376 10.0763 23.8415C9.20017 24.0605 7.82666 24.4528 6.53301 24.9242C5.88649 25.1598 5.24367 25.421 4.68624 25.6968C4.15001 25.9622 3.60932 26.2808 3.23495 26.6552C3.04741 26.8427 2.94206 27.0971 2.94206 27.3623V31.1884C2.94206 31.4963 3.08393 31.7871 3.32664 31.9766C3.56936 32.1661 3.88585 32.2332 4.18459 32.1585C5.01703 31.9504 6.39921 31.6363 7.8214 31.3748C9.26279 31.1099 10.6727 30.913 11.5942 30.913C13.6203 30.913 15.7346 31.8337 19.0127 33.9452L10.8417 43.2835ZM46.0226 39.2409C46.3502 38.7962 46.2552 38.1702 45.8105 37.8426C45.3658 37.5151 44.7398 37.6101 44.4123 38.0548C43.1334 39.7912 42.4548 41.8967 42.4789 44.0531C42.503 46.2094 43.2286 48.2993 44.546 50.0066C45.8634 51.7139 47.7008 52.9459 49.7805 53.5161C51.8602 54.0864 54.0691 53.964 56.073 53.1674C58.077 52.3708 59.7671 50.9433 60.8877 49.1009C62.0083 47.2584 62.4985 45.1012 62.2842 42.9554C62.0699 40.8096 61.1627 38.7919 59.6998 37.2075C58.2369 35.6231 56.2979 34.5581 54.176 34.1736C53.6326 34.0751 53.1122 34.4358 53.0137 34.9792C52.9152 35.5227 53.2759 36.0431 53.8194 36.1415C55.5138 36.4486 57.0622 37.299 58.2304 38.5643C59.3985 39.8295 60.123 41.4407 60.2941 43.1542C60.4652 44.8677 60.0738 46.5903 59.1789 48.0616C58.2841 49.5328 56.9345 50.6727 55.3342 51.3088C53.734 51.945 51.9701 52.0427 50.3094 51.5873C48.6487 51.132 47.1814 50.1482 46.1294 48.7848C45.0775 47.4215 44.498 45.7526 44.4788 44.0307C44.4595 42.3088 45.0014 40.6274 46.0226 39.2409ZM12.8595 36.1161C13.4047 36.2043 13.9181 35.8337 14.0063 35.2885C14.0944 34.7433 13.7239 34.2299 13.1787 34.1417C11.0498 33.7976 8.86678 34.1559 6.95968 35.1627C5.05257 36.1694 3.52515 37.7698 2.6084 39.7217C1.69164 41.6737 1.43542 43.8711 1.87847 45.9816C2.32152 48.0921 3.43975 50.001 5.06406 51.4195C6.68836 52.838 8.7304 53.6891 10.8813 53.8439C13.0323 53.9988 15.1752 53.449 16.9859 52.2778C18.7967 51.1066 20.1768 49.3776 20.9176 47.3523C21.6584 45.327 21.7196 43.1156 21.0919 41.0525C20.9312 40.5241 20.3725 40.2261 19.8442 40.3868C19.3158 40.5476 19.0178 41.1062 19.1785 41.6346C19.6798 43.2821 19.6309 45.048 19.0393 46.6653C18.4478 48.2826 17.3457 49.6632 15.8997 50.5985C14.4538 51.5338 12.7426 51.9727 11.025 51.8491C9.30734 51.7254 7.6767 51.0458 6.37962 49.9131C5.08255 48.7803 4.1896 47.256 3.8358 45.5707C3.48201 43.8854 3.68662 42.1307 4.41868 40.572C5.15075 39.0132 6.37045 37.7353 7.89335 36.9314C9.41625 36.1274 11.1595 35.8413 12.8595 36.1161Z" stroke="black" stroke-width="2" stroke-linecap="round" stroke-linejoin="round"/>
</svg>
