<svg width="15" height="15" viewBox="0 0 15 15" fill="none" xmlns="http://www.w3.org/2000/svg">
<g id="Icon_Main_Phone">
<path id="Vector" d="M14.1667 10.4167C13.125 10.4167 12.1875 10.2083 11.1458 9.89583C10.9375 9.79167 10.5208 9.89583 10.3125 10.1042L8.4375 11.9792C6.14583 10.8333 4.16667 8.85417 2.91667 6.45833L4.79167 4.58333C5.10417 4.375 5.20833 3.95833 5 3.75C4.79167 2.8125 4.58333 1.875 4.58333 0.833333C4.58333 0.3125 4.27083 0 3.75 0H0.833333C0.3125 0 0 0.3125 0 0.833333C0 8.64583 6.35417 15 14.1667 15C14.6875 15 15 14.6875 15 14.1667V11.25C15 10.7292 14.6875 10.4167 14.1667 10.4167ZM13.3333 7.5H15C15 3.33333 11.6667 0 7.5 0V1.66667C10.7292 1.66667 13.3333 4.27083 13.3333 7.5ZM10 7.5H11.6667C11.6667 5.20833 9.79167 3.33333 7.5 3.33333V5C8.95833 5 10 6.04167 10 7.5Z" fill="#C9CBCD"/>
</g>
</svg>
