<svg width="64" height="64" viewBox="0 0 64 64" fill="none" xmlns="http://www.w3.org/2000/svg">
<ellipse cx="15.4203" cy="46.3768" rx="5.10145" ry="5.10145" stroke="black" stroke-width="2"/>
<ellipse cx="48.0696" cy="46.3768" rx="5.10145" ry="5.10145" stroke="black" stroke-width="2"/>
<path d="M42.2029 19.5942L42.2029 11.6667C42.2029 11.1144 41.7552 10.6667 41.2029 10.6667H3.66669C3.1144 10.6667 2.66669 11.1144 2.66669 11.6667V37.7246C2.66669 38.2769 3.1144 38.7246 3.66669 38.7246H3.94205M42.2029 19.5942L42.3173 38.7246M42.2029 19.5942H48.5798M55.2131 45.5763H60.3333C60.8856 45.5763 61.3333 45.1286 61.3333 44.5763V33.6232M41.2315 45.5763H36.0548M22.5285 45.5763H26.8986M8.70433 45.5763C8.70433 45.5763 5.94654 45.5763 4.17947 45.5763V45.5763C4.04835 45.5763 3.94205 45.47 3.94205 45.3389V38.7246M3.94205 38.7246H26.8986M42.2029 38.7246H42.3173M26.8986 45.5763V38.7246M26.8986 45.5763H36.0548M26.8986 38.7246H36.0548M36.0548 45.5763V38.7246M36.0548 38.7246H42.3173M48.5798 19.5942H52.4058L59.8689 27.0573C60.8066 27.995 61.3333 29.2667 61.3333 30.5928V33.6232M48.5798 19.5942V32.6232C48.5798 33.1755 49.0275 33.6232 49.5798 33.6232H61.3333" stroke="black" stroke-width="2" stroke-linecap="round" stroke-linejoin="round"/>
</svg>
