<?xml version="1.0" encoding="UTF-8"?>
<svg version="1.1" xmlns="http://www.w3.org/2000/svg" width="48" height="48">
<path d="M0 0 C5.39574642 1.07914928 6.64024754 2.08540356 10.5 5.75 C11.87671875 7.04164062 11.87671875 7.04164062 13.28125 8.359375 C14.1784375 9.23078125 15.075625 10.1021875 16 11 C16.94230469 11.88558594 17.88460938 12.77117188 18.85546875 13.68359375 C19.56316406 14.44800781 20.27085938 15.21242188 21 16 C20.8125 18.3125 20.8125 18.3125 20 20 C20.66 20 21.32 20 22 20 C22 16.37 22 12.74 22 9 C27.61 9 33.22 9 39 9 C41.56787956 14.99171898 42.37293086 16.94190213 42.1875 22.9375 C42.14689453 24.65259766 42.14689453 24.65259766 42.10546875 26.40234375 C42.07066406 27.25957031 42.03585938 28.11679687 42 29 C40.35 29 38.7 29 37 29 C36.855625 29.639375 36.71125 30.27875 36.5625 30.9375 C36 33 36 33 35 34 C33.00041636 34.04080783 30.99954746 34.04254356 29 34 C28.34 32.68 27.68 31.36 27 30 C21.72 30 16.44 30 11 30 C10.34 31.32 9.68 32.64 9 34 C6.125 34.125 6.125 34.125 3 34 C1 32 1 32 0.875 29.375 C0.91625 28.59125 0.9575 27.8075 1 27 C-0.65 27 -2.3 27 -4 27 C-4 24.69 -4 22.38 -4 20 C1.61 20 7.22 20 13 20 C9.81749863 14.13031372 9.81749863 14.13031372 5.75 9.5625 C4.8425 8.716875 3.935 7.87125 3 7 C2.67 7.99 2.34 8.98 2 10 C2.66 10 3.32 10 4 10 C4 11.98 4 13.96 4 16 C2.02 16 0.04 16 -2 16 C-2 15.01 -2 14.02 -2 13 C-1.34 12.67 -0.68 12.34 0 12 C0 8.04 0 4.08 0 0 Z " fill="#5D6E73" transform="translate(5,7)"/>
<path d="M0 0 C5.61 0 11.22 0 17 0 C19.56787956 5.99171898 20.37293086 7.94190213 20.1875 13.9375 C20.16042969 15.08089844 20.13335937 16.22429688 20.10546875 17.40234375 C20.07066406 18.25957031 20.03585938 19.11679687 20 20 C18.35 20 16.7 20 15 20 C14.67 18.68 14.34 17.36 14 16 C9.85906302 15.79029441 9.85906302 15.79029441 6 17 C4.02 17 2.04 17 0 17 C0 11.39 0 5.78 0 0 Z " fill="#FBBD04" transform="translate(27,16)"/>
<path d="M0 0 C5.39574642 1.07914928 6.64024754 2.08540356 10.5 5.75 C11.87671875 7.04164062 11.87671875 7.04164062 13.28125 8.359375 C14.1784375 9.23078125 15.075625 10.1021875 16 11 C16.94230469 11.88558594 17.88460938 12.77117188 18.85546875 13.68359375 C19.56316406 14.44800781 20.27085938 15.21242188 21 16 C20.8125 18.3125 20.8125 18.3125 20 20 C17.69 20 15.38 20 13 20 C12.46375 18.96875 11.9275 17.9375 11.375 16.875 C9.12399747 12.89930848 6.33196833 10.10478867 3 7 C2.67 7.99 2.34 8.98 2 10 C2.66 10 3.32 10 4 10 C4 11.98 4 13.96 4 16 C2.02 16 0.04 16 -2 16 C-2 15.01 -2 14.02 -2 13 C-1.34 12.67 -0.68 12.34 0 12 C0 8.04 0 4.08 0 0 Z " fill="#B0BDC6" transform="translate(5,7)"/>
<path d="M0 0 C8.58 0 17.16 0 26 0 C26 1.98 26 3.96 26 6 C13.60726447 6.18047673 13.60726447 6.18047673 8 5 C7.34 5 6.68 5 6 5 C6 5.66 6 6.32 6 7 C4.02 7 2.04 7 0 7 C0 4.69 0 2.38 0 0 Z " fill="#1336DE" transform="translate(1,27)"/>
<path d="M0 0 C0.625 3.375 0.625 3.375 1 7 C-1 9 -1 9 -4 9.25 C-7 9 -7 9 -9 7 C-8.75 3.4375 -8.75 3.4375 -8 0 C-5.13822943 -1.43088528 -3.06624227 -0.59991697 0 0 Z " fill="#586B77" transform="translate(15,32)"/>
<path d="M0 0 C5.94 0 11.88 0 18 0 C17.67 1.32 17.34 2.64 17 4 C11.72 4 6.44 4 1 4 C0.67 2.68 0.34 1.36 0 0 Z " fill="#8FA3AD" transform="translate(15,33)"/>
<path d="M0 0 C2.31 0 4.62 0 7 0 C8.76462683 3.08809695 9 4.23312136 9 8 C6.03 8 3.06 8 0 8 C0 5.36 0 2.72 0 0 Z " fill="#7E1F04" transform="translate(35,18)"/>
<path d="M0 0 C0.66 0.33 1.32 0.66 2 1 C2 2.98 2 4.96 2 7 C2.66 7 3.32 7 4 7 C4 8.98 4 10.96 4 13 C2.02 13 0.04 13 -2 13 C-2 12.01 -2 11.02 -2 10 C-1.34 9.67 -0.68 9.34 0 9 C0 6.03 0 3.06 0 0 Z " fill="#607C8B" transform="translate(5,10)"/>
<path d="M0 0 C2.31 0 4.62 0 7 0 C7 1.32 7 2.64 7 4 C4.69 4 2.38 4 0 4 C0 2.68 0 1.36 0 0 Z " fill="#90A4AE" transform="translate(18,23)"/>
</svg>
